<svg width="885" height="479" viewBox="0 0 885 479" fill="none" xmlns="http://www.w3.org/2000/svg">
<g clip-path="url(#clip0_1_2)">
<path d="M128.041 414.684H752.041V377.067C752.041 369.211 742.574 361.478 726.067 355.851L725.897 355.793C714.752 351.86 643.506 323.877 604.969 324.724C584.612 325.17 567.183 328.62 553.168 334.98C509.543 354.783 452.238 362.099 421.962 356.351C395.28 351.285 322.031 342.908 294.966 343.286C257.061 343.808 256.95 350.14 218.041 370.578C203.181 378.377 197.623 379.356 128.041 385.578V414.684Z" fill="#F2F2F2"/>
<path d="M27.4428 359.393C26.0841 339.212 34.6515 318.825 52.4041 311.334C48.8154 332.127 53.237 355.232 64.638 375.263C69.0785 383.065 74.7812 391.394 73.5676 399.546C72.8125 404.618 69.3619 408.645 65.1455 411.267C60.9287 413.889 55.9601 415.289 51.0521 416.663L50.2047 417.553C38.5401 399.487 28.8016 379.574 27.4428 359.393Z" fill="#F2F2F2"/>
<path d="M52.6652 311.704C43.8613 325.258 39.9499 341.413 41.5783 357.493C41.8476 361.166 42.6702 364.778 44.0184 368.205C45.4928 371.638 47.754 374.677 50.6194 377.076C53.2717 379.386 56.2143 381.479 58.3382 384.314C59.3864 385.697 60.1449 387.278 60.5682 388.961C60.9916 390.644 61.0711 392.396 60.802 394.11C60.1829 398.173 58.0798 401.566 55.8955 404.796C53.4702 408.382 50.8877 412.061 50.4477 416.675C50.3944 417.234 49.5008 416.996 49.554 416.438C50.3195 408.411 57.0893 403.53 59.3647 396.219C59.9834 394.453 60.1944 392.57 59.9819 390.71C59.7694 388.851 59.1388 387.064 58.1375 385.483C56.1586 382.484 53.1256 380.323 50.4228 378.005C47.5928 375.693 45.291 372.802 43.6725 369.526C42.1601 366.156 41.2017 362.564 40.8344 358.889C39.9165 350.965 40.2926 342.944 41.9479 335.14C43.7185 326.551 47.114 318.38 51.9519 311.065C52.2487 310.62 52.96 311.261 52.6652 311.704Z" fill="white"/>
<path d="M40.7853 352.091C37.865 351.519 35.1956 350.051 33.1484 347.891C31.1012 345.732 29.778 342.987 29.363 340.041C29.2988 339.467 30.1913 339.466 30.2555 340.04C30.6373 342.784 31.8696 345.34 33.7792 347.347C35.6887 349.354 38.1794 350.713 40.901 351.231C40.9581 351.238 41.0133 351.256 41.0633 351.284C41.1134 351.312 41.1573 351.35 41.1926 351.396C41.2278 351.441 41.2536 351.493 41.2686 351.549C41.2835 351.604 41.2873 351.662 41.2796 351.719C41.272 351.776 41.253 351.831 41.2239 351.881C41.1948 351.931 41.1562 351.974 41.1102 352.009C41.0642 352.043 41.0118 352.068 40.956 352.082C40.9002 352.096 40.8422 352.099 40.7853 352.091Z" fill="white"/>
<path d="M49.1421 376.06C51.3212 374.436 53.1317 372.369 54.4544 369.995C55.7772 367.621 56.5822 364.994 56.8165 362.287C56.8718 361.728 57.7655 361.965 57.7101 362.523C57.4607 365.34 56.6171 368.072 55.2351 370.538C53.8531 373.005 51.964 375.151 49.6923 376.835C49.2577 377.153 48.7099 376.376 49.1421 376.06Z" fill="white"/>
<path d="M44.7593 327.213C45.7779 327.65 46.8913 327.821 47.994 327.707C49.0968 327.594 50.1522 327.2 51.0603 326.565C51.4899 326.241 52.0372 327.018 51.6105 327.34C50.6044 328.038 49.4386 328.471 48.221 328.599C47.0033 328.727 45.773 328.546 44.6437 328.073C44.5265 328.039 44.4243 327.966 44.3537 327.866C44.2831 327.767 44.2482 327.646 44.2547 327.524C44.263 327.468 44.2833 327.415 44.3144 327.368C44.3455 327.321 44.3865 327.281 44.4346 327.251C44.4826 327.221 44.5366 327.203 44.5927 327.196C44.6488 327.189 44.7057 327.195 44.7593 327.213Z" fill="white"/>
<path d="M117.174 344.215C116.913 344.426 116.652 344.637 116.392 344.855C112.902 347.702 109.685 350.869 106.785 354.314C106.556 354.576 106.328 354.846 106.109 355.115C99.1695 363.607 94.0902 373.461 91.1993 384.04C90.0136 388.354 89.1814 392.758 88.711 397.207C88.0503 403.412 87.8451 410.261 85.1793 415.444C84.909 415.987 84.6008 416.51 84.257 417.009L51.5242 418.67C51.4426 418.637 51.3621 418.61 51.2802 418.576L49.9847 418.703C49.9927 418.467 50.0061 418.224 50.014 417.988C50.018 417.851 50.0294 417.714 50.0334 417.577C50.0384 417.486 50.0437 417.394 50.0428 417.311C50.0444 417.28 50.0463 417.25 50.0493 417.227C50.0484 417.144 50.0566 417.067 50.0572 416.991C50.1283 415.629 50.2068 414.266 50.3005 412.903C50.2991 412.895 50.2991 412.895 50.3049 412.888C50.8675 402.636 52.7287 392.498 55.844 382.715C55.9403 382.429 56.0348 382.136 56.146 381.85C57.599 377.61 59.4377 373.512 61.6391 369.608C62.8419 367.495 64.166 365.454 65.6047 363.494C69.3298 358.446 73.9372 354.113 79.2044 350.704C84.5807 347.123 90.6319 344.678 96.9869 343.519C103.342 342.36 109.867 342.511 116.161 343.963C116.501 344.045 116.833 344.126 117.174 344.215Z" fill="#F2F2F2"/>
<path d="M117.181 344.637C101.837 348.494 88.3839 357.721 79.2591 370.645C77.2559 373.397 75.7576 376.483 74.8337 379.758C74.0287 383.164 74.1602 386.724 75.2141 390.062C76.1375 393.306 77.4503 396.571 77.5845 399.872C77.6582 401.488 77.3485 403.098 76.6807 404.571C76.013 406.043 75.0061 407.337 73.7425 408.346C70.6998 410.873 66.7581 412.029 62.8446 413.02C58.4994 414.12 53.9586 415.192 50.7357 418.22C50.3452 418.587 49.7018 417.879 50.0917 417.513C55.699 412.245 64.6767 412.835 71.1773 408.987C74.2106 407.191 76.5814 404.395 76.6893 400.586C76.7836 397.255 75.4325 393.887 74.4698 390.606C73.3971 387.347 73.1386 383.875 73.7168 380.493C74.4564 377.166 75.8233 374.01 77.7443 371.194C81.9108 364.873 87.1869 359.357 93.3175 354.915C100.414 349.729 108.431 345.941 116.943 343.752C117.479 343.613 117.713 344.499 117.181 344.637Z" fill="white"/>
<path d="M81.8776 366.312C77.329 362.011 76.1909 355.387 79.1921 350.839C79.4878 350.391 80.2767 350.927 79.9806 351.376C77.169 355.636 78.256 361.748 82.508 365.768C82.9554 366.191 82.3225 366.733 81.8776 366.312Z" fill="white"/>
<path d="M74.5335 388.448C77.2942 388.657 80.0686 388.302 82.6882 387.406C85.3078 386.511 87.718 385.092 89.7726 383.236C90.1646 382.871 90.8081 383.578 90.4165 383.943C88.2738 385.869 85.7618 387.341 83.0332 388.267C80.3045 389.194 77.416 389.556 74.5431 389.332C73.9639 389.297 73.9575 388.413 74.5335 388.448Z" fill="white"/>
<path d="M100.671 350.949C101.359 351.908 102.25 352.703 103.281 353.279C104.311 353.854 105.456 354.195 106.634 354.278C107.212 354.305 107.218 355.189 106.643 355.162C105.343 355.066 104.078 354.688 102.938 354.054C101.798 353.42 100.809 352.546 100.04 351.493C99.9584 351.41 99.9119 351.298 99.9107 351.181C99.9094 351.065 99.9534 350.952 100.034 350.867C100.13 350.797 100.25 350.766 100.368 350.781C100.487 350.796 100.595 350.856 100.671 350.949Z" fill="white"/>
<path d="M846.961 359.393C848.32 339.212 839.752 318.825 822 311.334C825.589 332.127 821.167 355.232 809.766 375.263C805.325 383.065 799.623 391.394 800.836 399.546C801.591 404.618 805.042 408.645 809.258 411.267C813.475 413.889 818.444 415.289 823.352 416.663L824.199 417.553C835.864 399.487 845.602 379.574 846.961 359.393Z" fill="#F2F2F2"/>
<path d="M821.739 311.704C830.543 325.258 834.454 341.413 832.826 357.493C832.556 361.166 831.734 364.778 830.385 368.205C828.911 371.638 826.65 374.677 823.784 377.076C821.132 379.386 818.19 381.479 816.066 384.314C815.017 385.697 814.259 387.278 813.836 388.961C813.412 390.644 813.333 392.396 813.602 394.11C814.221 398.173 816.324 401.566 818.508 404.796C820.934 408.382 823.516 412.061 823.956 416.675C824.01 417.234 824.903 416.996 824.85 416.438C824.084 408.411 817.315 403.53 815.039 396.219C814.421 394.453 814.209 392.57 814.422 390.71C814.634 388.851 815.265 387.064 816.266 385.483C818.245 382.484 821.278 380.323 823.981 378.005C826.811 375.693 829.113 372.802 830.731 369.526C832.244 366.156 833.202 362.564 833.57 358.889C834.487 350.965 834.111 342.944 832.456 335.14C830.685 326.551 827.29 318.38 822.452 311.065C822.155 310.62 821.444 311.261 821.739 311.704Z" fill="white"/>
<path d="M833.619 352.091C836.539 351.519 839.208 350.051 841.255 347.891C843.303 345.732 844.626 342.987 845.041 340.041C845.105 339.467 844.213 339.466 844.148 340.04C843.767 342.784 842.534 345.34 840.625 347.347C838.715 349.354 836.224 350.713 833.503 351.231C833.446 351.238 833.391 351.256 833.34 351.284C833.29 351.312 833.247 351.35 833.211 351.396C833.176 351.441 833.15 351.493 833.135 351.549C833.12 351.604 833.117 351.662 833.124 351.719C833.132 351.776 833.151 351.831 833.18 351.881C833.209 351.931 833.248 351.974 833.294 352.009C833.34 352.043 833.392 352.068 833.448 352.082C833.504 352.096 833.562 352.099 833.619 352.091Z" fill="white"/>
<path d="M825.262 376.06C823.083 374.436 821.272 372.369 819.949 369.995C818.627 367.621 817.822 364.994 817.587 362.287C817.532 361.728 816.638 361.965 816.694 362.523C816.943 365.34 817.787 368.072 819.169 370.538C820.551 373.005 822.44 375.151 824.712 376.835C825.146 377.153 825.694 376.376 825.262 376.06Z" fill="white"/>
<path d="M829.645 327.213C828.626 327.65 827.513 327.821 826.41 327.707C825.307 327.594 824.252 327.2 823.343 326.565C822.914 326.241 822.367 327.018 822.793 327.34C823.799 328.038 824.965 328.471 826.183 328.599C827.401 328.727 828.631 328.546 829.76 328.073C829.877 328.039 829.98 327.966 830.05 327.866C830.121 327.767 830.156 327.646 830.149 327.524C830.141 327.468 830.12 327.415 830.089 327.368C830.058 327.321 830.017 327.281 829.969 327.251C829.921 327.221 829.867 327.203 829.811 327.196C829.755 327.189 829.698 327.195 829.645 327.213Z" fill="white"/>
<path d="M757.23 344.215C757.491 344.426 757.752 344.637 758.012 344.855C761.502 347.702 764.718 350.869 767.619 354.314C767.848 354.576 768.075 354.846 768.295 355.115C775.234 363.607 780.314 373.461 783.205 384.04C784.39 388.354 785.222 392.758 785.693 397.207C786.354 403.411 786.559 410.261 789.225 415.444C789.495 415.987 789.803 416.509 790.147 417.009L822.88 418.67C822.961 418.636 823.042 418.61 823.124 418.576L824.419 418.703C824.411 418.467 824.398 418.224 824.39 417.988C824.386 417.851 824.375 417.714 824.371 417.577C824.366 417.486 824.36 417.394 824.361 417.311C824.359 417.28 824.358 417.25 824.355 417.227C824.355 417.144 824.347 417.067 824.347 416.991C824.276 415.629 824.197 414.266 824.103 412.903C824.105 412.895 824.105 412.895 824.099 412.888C823.536 402.636 821.675 392.498 818.56 382.715C818.464 382.429 818.369 382.136 818.258 381.85C816.805 377.61 814.966 373.512 812.765 369.608C811.562 367.495 810.238 365.454 808.799 363.494C805.074 358.446 800.467 354.113 795.199 350.704C789.823 347.123 783.772 344.678 777.417 343.519C771.062 342.36 764.537 342.511 758.243 343.963C757.903 344.045 757.571 344.126 757.23 344.215Z" fill="#F2F2F2"/>
<path d="M757.223 344.637C772.566 348.494 786.02 357.721 795.145 370.645C797.148 373.397 798.646 376.483 799.57 379.758C800.375 383.164 800.244 386.724 799.19 390.062C798.266 393.306 796.954 396.571 796.819 399.872C796.746 401.488 797.055 403.098 797.723 404.571C798.391 406.043 799.398 407.337 800.661 408.346C803.704 410.873 807.646 412.029 811.559 413.02C815.904 414.12 820.445 415.192 823.668 418.22C824.059 418.587 824.702 417.879 824.312 417.513C818.705 412.245 809.727 412.835 803.227 408.987C800.193 407.191 797.823 404.395 797.715 400.586C797.62 397.255 798.971 393.887 799.934 390.606C801.007 387.347 801.265 383.875 800.687 380.493C799.947 377.166 798.581 374.01 796.66 371.194C792.493 364.873 787.217 359.357 781.086 354.915C773.99 349.729 765.973 345.941 757.461 343.752C756.925 343.613 756.691 344.499 757.223 344.637Z" fill="white"/>
<path d="M792.526 366.312C797.075 362.011 798.213 355.387 795.212 350.839C794.916 350.391 794.127 350.927 794.423 351.376C797.235 355.636 796.148 361.748 791.896 365.768C791.448 366.191 792.081 366.733 792.526 366.312Z" fill="white"/>
<path d="M799.87 388.448C797.11 388.657 794.335 388.302 791.716 387.406C789.096 386.511 786.686 385.092 784.631 383.236C784.239 382.871 783.596 383.578 783.987 383.943C786.13 385.869 788.642 387.341 791.371 388.267C794.099 389.194 796.988 389.556 799.861 389.332C800.44 389.297 800.446 388.413 799.87 388.448Z" fill="white"/>
<path d="M773.733 350.949C773.045 351.908 772.154 352.703 771.123 353.279C770.093 353.854 768.948 354.195 767.77 354.278C767.192 354.305 767.186 355.189 767.76 355.162C769.061 355.066 770.326 354.688 771.466 354.054C772.606 353.42 773.595 352.546 774.364 351.493C774.446 351.41 774.492 351.298 774.493 351.181C774.494 351.065 774.45 350.952 774.37 350.867C774.274 350.797 774.154 350.766 774.036 350.781C773.917 350.796 773.809 350.856 773.733 350.949Z" fill="white"/>
<path d="M56.4632 259.483H50.4632V261.483H56.4632V259.483Z" fill="#E6E6E6"/>
<path d="M811.597 261.483H799.418V259.483H811.597V261.483ZM787.239 261.483H775.059V259.483H787.239V261.483ZM762.879 261.483H750.7V259.483H762.879V261.483ZM738.52 261.483H726.341V259.483H738.52V261.483ZM714.161 261.483H701.982V259.483H714.161V261.483ZM689.802 261.483H677.622V259.483H689.802V261.483ZM665.443 261.483H653.263V259.483H665.443V261.483ZM641.084 261.483H628.904V259.483H641.084L641.084 261.483ZM616.724 261.483H604.545V259.483H616.724V261.483ZM592.366 261.483H580.186V259.483H592.366V261.483ZM568.006 261.483H555.826V259.483H568.006V261.483ZM543.647 261.483H531.468V259.483H543.647V261.483ZM519.288 261.483H507.108V259.483H519.288V261.483ZM494.929 261.483H482.749V259.483H494.929V261.483ZM470.57 261.483H458.39V259.483H470.57V261.483ZM446.21 261.483H434.031V259.483H446.21V261.483ZM421.851 261.483H409.672V259.483H421.851V261.483ZM397.492 261.483H385.312V259.483H397.492V261.483ZM373.133 261.483H360.953V259.483H373.133V261.483ZM348.774 261.483H336.594V259.483H348.774V261.483ZM324.414 261.483H312.235V259.483H324.414V261.483ZM300.055 261.483H287.876V259.483H300.055V261.483ZM275.696 261.483H263.516V259.483H275.696V261.483ZM251.337 261.483H239.157V259.483H251.337L251.337 261.483ZM226.977 261.483H214.798V259.483H226.977V261.483ZM202.618 261.483H190.439V259.483H202.618V261.483ZM178.259 261.483H166.079V259.483H178.259V261.483ZM153.9 261.483H141.721V259.483H153.9V261.483ZM129.541 261.483H117.361V259.483H129.541V261.483ZM105.181 261.483H93.0022V259.483H105.181V261.483ZM80.8226 261.483H68.6429V259.483H80.8226V261.483Z" fill="#E6E6E6"/>
<path d="M829.778 259.483H823.778V261.483H829.778V259.483Z" fill="#E6E6E6"/>
<path d="M56.4632 245.483H50.4632V247.483H56.4632V245.483Z" fill="#E6E6E6"/>
<path d="M811.597 247.483H799.418V245.483H811.597V247.483ZM787.239 247.483H775.059V245.483H787.239V247.483ZM762.879 247.483H750.7V245.483H762.879V247.483ZM738.52 247.483H726.341V245.483H738.52V247.483ZM714.161 247.483H701.982V245.483H714.161V247.483ZM689.802 247.483H677.622V245.483H689.802V247.483ZM665.443 247.483H653.263V245.483H665.443V247.483ZM641.084 247.483H628.904V245.483H641.084L641.084 247.483ZM616.724 247.483H604.545V245.483H616.724V247.483ZM592.366 247.483H580.186V245.483H592.366V247.483ZM568.006 247.483H555.826V245.483H568.006V247.483ZM543.647 247.483H531.468V245.483H543.647V247.483ZM519.288 247.483H507.108V245.483H519.288V247.483ZM494.929 247.483H482.749V245.483H494.929V247.483ZM470.57 247.483H458.39V245.483H470.57V247.483ZM446.21 247.483H434.031V245.483H446.21V247.483ZM421.851 247.483H409.672V245.483H421.851V247.483ZM397.492 247.483H385.312V245.483H397.492V247.483ZM373.133 247.483H360.953V245.483H373.133V247.483ZM348.774 247.483H336.594V245.483H348.774V247.483ZM324.414 247.483H312.235V245.483H324.414V247.483ZM300.055 247.483H287.876V245.483H300.055V247.483ZM275.696 247.483H263.516V245.483H275.696V247.483ZM251.337 247.483H239.157V245.483H251.337L251.337 247.483ZM226.977 247.483H214.798V245.483H226.977V247.483ZM202.618 247.483H190.439V245.483H202.618V247.483ZM178.259 247.483H166.079V245.483H178.259V247.483ZM153.9 247.483H141.721V245.483H153.9V247.483ZM129.541 247.483H117.361V245.483H129.541V247.483ZM105.181 247.483H93.0022V245.483H105.181V247.483ZM80.8226 247.483H68.6429V245.483H80.8226V247.483Z" fill="#E6E6E6"/>
<path d="M829.778 245.483H823.778V247.483H829.778V245.483Z" fill="#E6E6E6"/>
<path d="M56.4632 216.483H50.4632V218.483H56.4632V216.483Z" fill="#E6E6E6"/>
<path d="M811.597 218.483H799.418V216.483H811.597V218.483ZM787.239 218.483H775.059V216.483H787.239V218.483ZM762.879 218.483H750.7V216.483H762.879V218.483ZM738.52 218.483H726.341V216.483H738.52V218.483ZM714.161 218.483H701.982V216.483H714.161V218.483ZM689.802 218.483H677.622V216.483H689.802V218.483ZM665.443 218.483H653.263V216.483H665.443V218.483ZM641.084 218.483H628.904V216.483H641.084L641.084 218.483ZM616.724 218.483H604.545V216.483H616.724V218.483ZM592.366 218.483H580.186V216.483H592.366V218.483ZM568.006 218.483H555.826V216.483H568.006V218.483ZM543.647 218.483H531.468V216.483H543.647V218.483ZM519.288 218.483H507.108V216.483H519.288V218.483ZM494.929 218.483H482.749V216.483H494.929V218.483ZM470.57 218.483H458.39V216.483H470.57V218.483ZM446.21 218.483H434.031V216.483H446.21V218.483ZM421.851 218.483H409.672V216.483H421.851V218.483ZM397.492 218.483H385.312V216.483H397.492V218.483ZM373.133 218.483H360.953V216.483H373.133V218.483ZM348.774 218.483H336.594V216.483H348.774V218.483ZM324.414 218.483H312.235V216.483H324.414V218.483ZM300.055 218.483H287.876V216.483H300.055V218.483ZM275.696 218.483H263.516V216.483H275.696V218.483ZM251.337 218.483H239.157V216.483H251.337L251.337 218.483ZM226.977 218.483H214.798V216.483H226.977V218.483ZM202.618 218.483H190.439V216.483H202.618V218.483ZM178.259 218.483H166.079V216.483H178.259V218.483ZM153.9 218.483H141.721V216.483H153.9V218.483ZM129.541 218.483H117.361V216.483H129.541V218.483ZM105.181 218.483H93.0022V216.483H105.181V218.483ZM80.8226 218.483H68.6429V216.483H80.8226V218.483Z" fill="#E6E6E6"/>
<path d="M829.778 216.483H823.778V218.483H829.778V216.483Z" fill="#E6E6E6"/>
<path d="M56.4632 196.483H50.4632V198.483H56.4632V196.483Z" fill="#E6E6E6"/>
<path d="M811.597 198.483H799.418V196.483H811.597V198.483ZM787.239 198.483H775.059V196.483H787.239V198.483ZM762.879 198.483H750.7V196.483H762.879V198.483ZM738.52 198.483H726.341V196.483H738.52V198.483ZM714.161 198.483H701.982V196.483H714.161V198.483ZM689.802 198.483H677.622V196.483H689.802V198.483ZM665.443 198.483H653.263V196.483H665.443V198.483ZM641.084 198.483H628.904V196.483H641.084L641.084 198.483ZM616.724 198.483H604.545V196.483H616.724V198.483ZM592.366 198.483H580.186V196.483H592.366V198.483ZM568.006 198.483H555.826V196.483H568.006V198.483ZM543.647 198.483H531.468V196.483H543.647V198.483ZM519.288 198.483H507.108V196.483H519.288V198.483ZM494.929 198.483H482.749V196.483H494.929V198.483ZM470.57 198.483H458.39V196.483H470.57V198.483ZM446.21 198.483H434.031V196.483H446.21V198.483ZM421.851 198.483H409.672V196.483H421.851V198.483ZM397.492 198.483H385.312V196.483H397.492V198.483ZM373.133 198.483H360.953V196.483H373.133V198.483ZM348.774 198.483H336.594V196.483H348.774V198.483ZM324.414 198.483H312.235V196.483H324.414V198.483ZM300.055 198.483H287.876V196.483H300.055V198.483ZM275.696 198.483H263.516V196.483H275.696V198.483ZM251.337 198.483H239.157V196.483H251.337L251.337 198.483ZM226.977 198.483H214.798V196.483H226.977V198.483ZM202.618 198.483H190.439V196.483H202.618V198.483ZM178.259 198.483H166.079V196.483H178.259V198.483ZM153.9 198.483H141.721V196.483H153.9V198.483ZM129.541 198.483H117.361V196.483H129.541V198.483ZM105.181 198.483H93.0022V196.483H105.181V198.483ZM80.8226 198.483H68.6429V196.483H80.8226V198.483Z" fill="#E6E6E6"/>
<path d="M829.778 196.483H823.778V198.483H829.778V196.483Z" fill="#E6E6E6"/>
<path d="M56.4632 153.483H50.4632V155.483H56.4632V153.483Z" fill="#E6E6E6"/>
<path d="M811.597 155.483H799.418V153.483H811.597V155.483ZM787.239 155.483H775.059V153.483H787.239V155.483ZM762.879 155.483H750.7V153.483H762.879V155.483ZM738.52 155.483H726.341V153.483H738.52V155.483ZM714.161 155.483H701.982V153.483H714.161V155.483ZM689.802 155.483H677.622V153.483H689.802V155.483ZM665.443 155.483H653.263V153.483H665.443V155.483ZM641.084 155.483H628.904V153.483H641.084L641.084 155.483ZM616.724 155.483H604.545V153.483H616.724V155.483ZM592.366 155.483H580.186V153.483H592.366V155.483ZM568.006 155.483H555.826V153.483H568.006V155.483ZM543.647 155.483H531.468V153.483H543.647V155.483ZM519.288 155.483H507.108V153.483H519.288V155.483ZM494.929 155.483H482.749V153.483H494.929V155.483ZM470.57 155.483H458.39V153.483H470.57V155.483ZM446.21 155.483H434.031V153.483H446.21V155.483ZM421.851 155.483H409.672V153.483H421.851V155.483ZM397.492 155.483H385.312V153.483H397.492V155.483ZM373.133 155.483H360.953V153.483H373.133V155.483ZM348.774 155.483H336.594V153.483H348.774V155.483ZM324.414 155.483H312.235V153.483H324.414V155.483ZM300.055 155.483H287.876V153.483H300.055V155.483ZM275.696 155.483H263.516V153.483H275.696V155.483ZM251.337 155.483H239.157V153.483H251.337L251.337 155.483ZM226.977 155.483H214.798V153.483H226.977V155.483ZM202.618 155.483H190.439V153.483H202.618V155.483ZM178.259 155.483H166.079V153.483H178.259V155.483ZM153.9 155.483H141.721V153.483H153.9V155.483ZM129.541 155.483H117.361V153.483H129.541V155.483ZM105.181 155.483H93.0022V153.483H105.181V155.483ZM80.8226 155.483H68.6429V153.483H80.8226V155.483Z" fill="#E6E6E6"/>
<path d="M829.778 153.483H823.778V155.483H829.778V153.483Z" fill="#E6E6E6"/>
<path d="M340.988 95.6966C340.988 106.463 337.796 116.987 331.814 125.939C325.833 134.89 317.332 141.867 307.385 145.987C297.438 150.107 286.493 151.185 275.934 149.085C265.375 146.985 255.676 141.8 248.063 134.188C240.45 126.575 235.266 116.875 233.165 106.316C231.065 95.757 232.143 84.8121 236.263 74.8655C240.383 64.9189 247.36 56.4174 256.312 50.436C265.263 44.4547 275.788 41.2622 286.554 41.2622C293.711 41.2303 300.804 42.6166 307.423 45.3409C314.041 48.0652 320.055 52.0736 325.116 57.1346C330.177 62.1957 334.185 68.2091 336.909 74.8278C339.634 81.4465 341.02 88.5392 340.988 95.6966Z" fill="#F2F2F2"/>
<path d="M308.816 82.6721L308.547 83.1576C310.944 77.2493 308.764 69.9689 304.488 65.5139C300.211 61.0589 294.266 59.0222 288.412 58.2141C284.066 57.4477 279.597 57.7949 275.423 59.2235C269.439 61.5288 264.867 66.8652 261.05 72.4165C259.304 74.9556 257.587 77.8504 257.761 81.024C257.922 83.9691 259.67 86.4684 261.102 88.967C262.534 91.4657 263.729 94.5658 262.702 97.2929C262.09 98.9181 260.795 100.089 259.745 101.418C258.696 102.747 257.832 104.544 258.339 106.212C258.564 106.851 258.951 107.419 259.462 107.863C259.973 108.307 260.59 108.611 261.253 108.745C262.538 108.96 263.852 108.928 265.125 108.653L298.494 103.612C300.761 103.269 302.912 102.383 304.763 101.03C306.614 99.6763 308.111 97.8951 309.125 95.8383C310.139 93.7814 310.64 91.5099 310.586 89.2173C310.533 86.9248 309.925 84.6792 308.816 82.6721Z" fill="#2F2E41"/>
<path d="M283.996 103.379C293.006 103.379 300.311 96.075 300.311 87.0647C300.311 78.0544 293.006 70.7501 283.996 70.7501C274.986 70.7501 267.681 78.0544 267.681 87.0647C267.681 96.075 274.986 103.379 283.996 103.379Z" fill="#FFB9B9"/>
<path d="M327.428 131.637C317.997 142.368 304.725 148.96 290.476 149.989C276.228 151.019 262.146 146.404 251.27 137.141L255.939 124.113C256.994 121.799 258.659 119.816 260.756 118.377C262.852 116.937 265.301 116.095 267.84 115.941L270.81 115.759L277.892 109.651C277.892 109.651 296.976 108.969 296.693 108.643L308.253 115.596L308.243 115.548L312.787 115.826C315.326 115.979 317.775 116.821 319.872 118.261C321.968 119.7 323.633 121.684 324.688 123.998L327.428 131.637Z" fill="#8A0C0C"/>
<path d="M299.471 71.9228C299.05 69.6949 296.777 68.6759 294.831 68.1821C289.184 66.7413 283.309 66.4188 277.538 67.2325C273.332 67.8325 269.025 69.1553 265.973 72.439C263.511 75.2039 262.117 78.7559 262.039 82.4568C261.915 84.6696 262.409 86.8734 263.467 88.821C263.94 89.7277 264.641 90.4958 265.501 91.0499C266.361 91.6039 267.35 91.925 268.371 91.9814L268.566 92.6621C272.79 91.9817 276.816 90.397 280.37 88.0164C283.924 85.6359 286.922 82.5157 289.158 78.8693C288.259 82.0808 286.469 84.9721 283.996 87.2093C289.526 84.9965 294.333 81.2918 297.881 76.5078C298.85 75.2217 299.791 73.6177 299.471 71.9228Z" fill="#2F2E41"/>
<path d="M750.43 167.385C780.493 167.385 804.865 143.014 804.865 112.951C804.865 82.8873 780.493 58.5162 750.43 58.5162C720.367 58.5162 695.996 82.8873 695.996 112.951C695.996 143.014 720.367 167.385 750.43 167.385Z" fill="#F2F2F2"/>
<path d="M735.482 92.525C739.727 92.525 743.167 89.0843 743.167 84.8398C743.167 80.5954 739.727 77.1546 735.482 77.1546C731.238 77.1546 727.797 80.5954 727.797 84.8398C727.797 89.0843 731.238 92.525 735.482 92.525Z" fill="#2F2E41"/>
<path d="M747.779 121.729C758.531 121.729 767.248 113.012 767.248 102.26C767.248 91.5071 758.531 82.7904 747.779 82.7904C737.026 82.7904 728.309 91.5071 728.309 102.26C728.309 113.012 737.026 121.729 747.779 121.729Z" fill="#2F2E41"/>
<path d="M749.39 121.724C758.127 121.724 765.211 114.641 765.211 105.903C765.211 97.1654 758.127 90.0822 749.39 90.0822C740.652 90.0822 733.569 97.1654 733.569 105.903C733.569 114.641 740.652 121.724 749.39 121.724Z" fill="#9E616A"/>
<path d="M760.134 89.7758C757.361 88.0857 754.186 87.1715 750.939 87.1287C747.693 87.0858 744.494 87.9161 741.678 89.5325C738.862 91.149 736.532 93.4922 734.932 96.3173C733.332 99.1424 732.52 102.346 732.581 105.592C740.643 107.616 749.112 109.165 757.709 106.076L759.739 101.107L760.936 106.08C763.554 107.15 766.179 108.055 768.804 106.069C768.911 102.832 768.167 99.6236 766.645 96.7644C765.124 93.9051 762.878 91.4953 760.134 89.7758Z" fill="#2F2E41"/>
<path d="M728.327 63.9773C725.629 62.8256 722.662 62.452 719.762 62.8987C716.863 63.3453 714.146 64.5945 711.919 66.5048C709.742 68.4696 708.084 70.9426 707.094 73.7034C706.104 76.4641 705.813 79.4269 706.245 82.3278C707.117 88.2279 710.703 93.3086 714.01 98.2724C717.316 103.236 720.546 108.675 720.542 114.639C720.54 118.935 718.834 123.054 715.798 126.094C712.763 129.133 708.646 130.845 704.35 130.854C709.392 133.024 714.654 135.237 720.137 134.98C725.62 134.723 731.367 131.198 732.261 125.782C732.906 121.88 730.991 118.075 729.395 114.456C726.794 108.56 724.914 102.372 723.796 96.0257C723.262 92.9967 722.915 89.8123 723.903 86.8996C724.689 84.7412 726.148 82.8926 728.065 81.6264C729.982 80.3602 732.255 79.7435 734.549 79.8672L736.36 78.2373C736.671 75.3201 736.063 72.3788 734.624 69.8228C733.184 67.2669 730.983 65.2235 728.327 63.9773Z" fill="#2F2E41"/>
<path d="M791.388 149.371C781.957 160.102 768.685 166.694 754.437 167.723C740.188 168.753 726.106 164.138 715.231 154.875L719.899 141.847C720.955 139.533 722.62 137.55 724.716 136.111C726.813 134.671 729.261 133.829 731.8 133.675L734.77 133.493L741.853 127.385C741.853 127.385 760.936 126.703 760.653 126.377L772.213 133.33L772.203 133.282L776.748 133.56C779.286 133.713 781.735 134.555 783.832 135.995C785.928 137.434 787.593 139.418 788.648 141.732L791.388 149.371Z" fill="#8A0C0C"/>
<path d="M649.988 55.0309C649.969 65.797 646.758 76.3157 640.761 85.2568C634.763 94.1978 626.25 101.16 616.296 105.262C606.342 109.364 595.395 110.423 584.839 108.304C574.284 106.185 564.594 100.983 556.995 93.357C549.395 85.7308 544.228 76.0223 542.146 65.4594C540.065 54.8964 541.162 43.9534 545.3 34.0141C549.438 24.0749 556.43 15.5858 565.392 9.62031C574.354 3.65486 584.884 0.480997 595.65 0.500086C602.804 0.494203 609.888 1.90209 616.496 4.64282C623.104 7.38355 629.105 11.4031 634.154 16.4705C639.204 21.5378 643.202 27.5531 645.919 34.1706C648.637 40.7881 650.019 47.8773 649.988 55.0309Z" fill="#F2F2F2"/>
<path d="M570.324 37.2269C572.575 30.0536 577.693 23.4744 584.772 21.0494C591.851 18.6244 602.217 22.3185 607.539 27.6224C617.274 37.3244 619.649 70.6542 612.961 81.1868C611.631 81.1164 607.04 81.0643 605.694 81.0139L603.789 74.6656V80.9513C601.644 80.885 599.482 80.8392 597.304 80.814C589.999 80.7234 583.014 77.8044 577.817 72.6705C572.62 67.5366 569.616 60.5878 569.437 53.2849C569.262 46.2986 569.437 40.0538 570.324 37.2269Z" fill="#2F2E41"/>
<path d="M594.746 61.0011C603.314 61.0011 610.26 54.0555 610.26 45.4877C610.26 36.9198 603.314 29.9742 594.746 29.9742C586.179 29.9742 579.233 36.9198 579.233 45.4877C579.233 54.0555 586.179 61.0011 594.746 61.0011Z" fill="#9E616A"/>
<path d="M581.358 31.8632L599.22 22.9191C602.872 24.5647 606.017 27.1573 608.329 30.4281C610.641 33.6988 612.036 37.5285 612.37 41.5201L612.815 46.8531L605.335 44.9491L604.516 38.1299L603.245 44.4172L599.793 43.5389L599.826 32.952L596.372 43.5314L584.044 40.6989L581.358 31.8632Z" fill="#2F2E41"/>
<path d="M635.948 90.9569C626.517 101.688 613.245 108.279 598.996 109.309C584.748 110.339 570.666 105.724 559.79 96.4608L564.459 83.4328C565.514 81.1189 567.179 79.1358 569.276 77.6962C571.372 76.2566 573.821 75.4147 576.36 75.261L579.33 75.0786L586.413 68.9701C586.413 68.9701 605.496 68.2887 605.213 67.9624L616.773 74.9155L616.763 74.8675L621.307 75.1458C623.846 75.2989 626.295 76.1404 628.392 77.5801C630.488 79.0198 632.153 81.0033 633.208 83.3177L635.948 90.9569Z" fill="#8A0C0C"/>
<path d="M445.909 197.385C475.972 197.385 500.343 173.014 500.343 142.951C500.343 112.887 475.972 88.5162 445.909 88.5162C415.845 88.5162 391.474 112.887 391.474 142.951C391.474 173.014 415.845 197.385 445.909 197.385Z" fill="#F2F2F2"/>
<path d="M444.406 149.694C454.003 149.694 461.782 141.914 461.782 132.318C461.782 122.721 454.003 114.942 444.406 114.942C434.81 114.942 427.03 122.721 427.03 132.318C427.03 141.914 434.81 149.694 444.406 149.694Z" fill="#FFB6B6"/>
<path d="M486.746 179.371C477.316 190.102 464.044 196.694 449.795 197.723C435.547 198.753 421.465 194.138 410.589 184.875L415.258 171.847C416.313 169.533 417.978 167.55 420.075 166.111C422.171 164.671 424.62 163.829 427.158 163.675L430.129 163.493L437.211 157.385C437.211 157.385 456.295 156.703 456.012 156.377L467.572 163.33L467.562 163.282L472.106 163.56C474.645 163.713 477.094 164.555 479.19 165.995C481.287 167.434 482.952 169.418 484.007 171.732L486.746 179.371Z" fill="#8A0C0C"/>
<path d="M462.732 121.541C461.264 116.286 457.928 111.747 453.35 108.777C449.702 106.444 445.15 105.252 441.017 106.486C436.884 107.72 433.463 111.776 433.733 116.158C432.968 115.957 432.161 115.974 431.405 116.208C430.648 116.441 429.972 116.882 429.454 117.48C428.417 118.704 427.696 120.164 427.354 121.731C426.028 126.644 426.116 131.832 427.607 136.698L427.525 137.396C429.542 137.062 431.071 135.332 432.022 133.489C432.973 131.646 433.52 129.601 434.551 127.803C435.582 126.005 437.293 124.401 439.335 124.345L439.155 127.466C440.912 126.561 442.669 125.656 444.426 124.751C444.008 125.75 443.59 126.75 443.172 127.75C444.706 127.108 446.241 126.467 447.775 125.826C447.603 126.787 447.432 127.748 447.26 128.709C447.663 127.875 448.23 127.131 448.928 126.522C449.626 125.913 450.441 125.453 451.322 125.168C452.203 124.883 453.133 124.779 454.056 124.864C454.978 124.949 455.874 125.22 456.688 125.661C458.523 126.895 459.845 128.756 460.408 130.894C460.966 133.028 461.265 135.221 461.299 137.426C463.67 132.475 464.179 126.836 462.732 121.541Z" fill="#2F2E41"/>
<path d="M130.77 222.131C160.833 222.131 185.204 197.76 185.204 167.697C185.204 137.634 160.833 113.262 130.77 113.262C100.707 113.262 76.3354 137.634 76.3354 167.697C76.3354 197.76 100.707 222.131 130.77 222.131Z" fill="#F2F2F2"/>
<path d="M129.572 173.343C138.692 173.343 146.086 165.95 146.086 156.829C146.086 147.709 138.692 140.315 129.572 140.315C120.451 140.315 113.057 147.709 113.057 156.829C113.057 165.95 120.451 173.343 129.572 173.343Z" fill="#9E616A"/>
<path d="M170.907 203.637C161.476 214.368 148.204 220.96 133.956 221.989C119.707 223.019 105.625 218.404 94.7497 209.141L99.4187 196.113C100.474 193.799 102.139 191.816 104.235 190.377C106.332 188.937 108.781 188.095 111.319 187.941L114.289 187.759L121.372 181.651C121.372 181.651 140.456 180.969 140.173 180.643L151.732 187.596L151.723 187.548L156.267 187.826C158.805 187.979 161.254 188.821 163.351 190.261C165.448 191.7 167.113 193.684 168.167 195.998L170.907 203.637Z" fill="#8A0C0C"/>
<path d="M114.567 164.464C114.534 164.374 114.505 164.282 114.473 164.192C114.409 164.248 114.348 164.306 114.279 164.358L114.567 164.464Z" fill="#2F2E41"/>
<path d="M149.354 150.954C149.269 149.278 148.83 147.64 148.066 146.146C147.302 144.652 146.23 143.338 144.92 142.289C143.878 141.637 142.96 140.807 142.207 139.836C141.844 139.094 141.536 138.326 141.286 137.538C140.018 134.52 136.405 132.917 133.164 133.374C131.553 133.68 130.019 134.308 128.656 135.22C127.293 136.132 126.127 137.31 125.229 138.683C124.299 138.237 123.259 138.067 122.235 138.194C121.211 138.32 120.244 138.737 119.449 139.396C118.654 140.054 118.065 140.927 117.751 141.91C117.437 142.893 117.411 143.946 117.677 144.943C115.998 143.591 113.284 144.673 112.236 146.556C111.188 148.439 111.355 150.744 111.666 152.877C112.23 156.731 113.17 160.521 114.473 164.192C116.107 162.753 116.006 160.132 115.807 157.917C115.599 155.615 115.723 152.805 117.736 151.67C119.68 150.572 122.04 151.777 124.184 152.4C125.879 152.88 127.658 152.987 129.398 152.713C131.139 152.439 132.799 151.792 134.265 150.814C135.32 149.975 136.427 149.204 137.58 148.505C138.162 148.161 138.823 147.974 139.499 147.962C140.175 147.95 140.843 148.114 141.437 148.436C142.377 149.247 143.008 150.357 143.225 151.579C144.05 154.378 144.876 157.177 145.701 159.977C146.913 158.816 147.865 157.412 148.495 155.857C149.124 154.302 149.417 152.631 149.354 150.954Z" fill="#2F2E41"/>
<path d="M130.951 264.026H125.755V416.328H130.951V264.026Z" fill="#3F3D56"/>
<path d="M286.514 192.895H281.318V416.328H286.514V192.895Z" fill="#3F3D56"/>
<path d="M442.398 239.66H437.202V416.328H442.398V239.66Z" fill="#3F3D56"/>
<path d="M598.282 153.924H593.086V416.328H598.282V153.924Z" fill="#3F3D56"/>
<path d="M754.165 213.679H748.969V416.328H754.165V213.679Z" fill="#3F3D56"/>
<path d="M284.237 212.372C293.016 212.372 300.133 205.255 300.133 196.476C300.133 187.697 293.016 180.581 284.237 180.581C275.458 180.581 268.341 187.697 268.341 196.476C268.341 205.255 275.458 212.372 284.237 212.372Z" fill="#8A0C0C"/>
<path d="M596.004 170.803C604.783 170.803 611.9 163.686 611.9 154.907C611.9 146.128 604.783 139.012 596.004 139.012C587.225 139.012 580.108 146.128 580.108 154.907C580.108 163.686 587.225 170.803 596.004 170.803Z" fill="#8A0C0C"/>
<path d="M440.12 256.539C448.899 256.539 456.016 249.422 456.016 240.643C456.016 231.864 448.899 224.748 440.12 224.748C431.341 224.748 424.225 231.864 424.225 240.643C424.225 249.422 431.341 256.539 440.12 256.539Z" fill="#8A0C0C"/>
<path d="M128.353 279.922C137.132 279.922 144.249 272.805 144.249 264.026C144.249 255.247 137.132 248.13 128.353 248.13C119.574 248.13 112.457 255.247 112.457 264.026C112.457 272.805 119.574 279.922 128.353 279.922Z" fill="#8A0C0C"/>
<path d="M751.888 227.96C760.667 227.96 767.784 220.844 767.784 212.065C767.784 203.286 760.667 196.169 751.888 196.169C743.109 196.169 735.992 203.286 735.992 212.065C735.992 220.844 743.109 227.96 751.888 227.96Z" fill="#8A0C0C"/>
<path d="M863.392 414.758H19.498L14.1994 417.407C14.1994 418.11 14.4786 418.784 14.9754 419.281C15.4722 419.777 16.1461 420.056 16.8487 420.057H863.392C864.095 420.057 864.769 419.777 865.265 419.281C865.762 418.784 866.041 418.11 866.041 417.407C866.041 416.705 865.762 416.031 865.265 415.534C864.769 415.037 864.095 414.758 863.392 414.758Z" fill="#3F3D56"/>
<path d="M16.3958 432.048C25.1748 432.048 32.2915 424.932 32.2915 416.153C32.2915 407.374 25.1748 400.257 16.3958 400.257C7.61678 400.257 0.5 407.374 0.5 416.153C0.5 424.932 7.61678 432.048 16.3958 432.048Z" fill="#3F3D56"/>
<path d="M128.396 478.048C137.175 478.048 144.292 470.932 144.292 462.153C144.292 453.374 137.175 446.257 128.396 446.257C119.617 446.257 112.5 453.374 112.5 462.153C112.5 470.932 119.617 478.048 128.396 478.048Z" fill="#E6E6E6"/>
<path d="M284.396 478.048C293.175 478.048 300.292 470.932 300.292 462.153C300.292 453.374 293.175 446.257 284.396 446.257C275.617 446.257 268.5 453.374 268.5 462.153C268.5 470.932 275.617 478.048 284.396 478.048Z" fill="#E6E6E6"/>
<path d="M440.396 478.048C449.175 478.048 456.292 470.932 456.292 462.153C456.292 453.374 449.175 446.257 440.396 446.257C431.617 446.257 424.5 453.374 424.5 462.153C424.5 470.932 431.617 478.048 440.396 478.048Z" fill="#E6E6E6"/>
<path d="M595.396 478.048C604.175 478.048 611.292 470.932 611.292 462.153C611.292 453.374 604.175 446.257 595.396 446.257C586.617 446.257 579.5 453.374 579.5 462.153C579.5 470.932 586.617 478.048 595.396 478.048Z" fill="#E6E6E6"/>
<path d="M751.396 478.048C760.175 478.048 767.292 470.932 767.292 462.153C767.292 453.374 760.175 446.257 751.396 446.257C742.617 446.257 735.5 453.374 735.5 462.153C735.5 470.932 742.617 478.048 751.396 478.048Z" fill="#E6E6E6"/>
<path d="M868.396 432.048C877.175 432.048 884.292 424.932 884.292 416.153C884.292 407.374 877.175 400.257 868.396 400.257C859.617 400.257 852.5 407.374 852.5 416.153C852.5 424.932 859.617 432.048 868.396 432.048Z" fill="#3F3D56"/>
</g>
<defs>
<clipPath id="clip0_1_2">
<rect width="883.792" height="477.548" fill="white" transform="translate(0.5 0.5)"/>
</clipPath>
</defs>
</svg>
