<svg width="435" height="347" viewBox="0 0 435 347" fill="none" xmlns="http://www.w3.org/2000/svg">
<path d="M246.5 101.003H74.8516C71.7644 101.043 68.7768 99.9116 66.4902 97.8371C64.2035 95.7626 62.7876 92.899 62.5274 89.8225C62.4161 88.1816 62.6431 86.5354 63.1943 84.9859C63.7455 83.4363 64.6092 82.0165 65.7318 80.8146C66.8543 79.6126 68.2119 78.6541 69.7202 77.9985C71.2285 77.3428 72.8554 77.0041 74.5001 77.0032H246.5C249.683 77.0032 252.735 78.2674 254.985 80.5179C257.236 82.7683 258.5 85.8206 258.5 89.0032C258.5 92.1858 257.236 95.238 254.985 97.4884C252.735 99.7389 249.683 101.003 246.5 101.003Z" fill="#8A0C0C"/>
<path d="M345.236 120.503H63C62.7348 120.503 62.4804 120.398 62.2929 120.21C62.1053 120.023 62 119.768 62 119.503C62 119.238 62.1053 118.984 62.2929 118.796C62.4804 118.609 62.7348 118.503 63 118.503H345.236C345.502 118.503 345.756 118.609 345.943 118.796C346.131 118.984 346.236 119.238 346.236 119.503C346.236 119.768 346.131 120.023 345.943 120.21C345.756 120.398 345.502 120.503 345.236 120.503Z" fill="#E6E6E6"/>
<path d="M333.5 101.503H74.5C71.1848 101.503 68.0054 100.186 65.6612 97.842C63.317 95.4978 62 92.3184 62 89.0032C62 85.688 63.317 82.5085 65.6612 80.1643C68.0054 77.8201 71.1848 76.5032 74.5 76.5032H333.5C336.815 76.5032 339.995 77.8201 342.339 80.1643C344.683 82.5085 346 85.688 346 89.0032C346 92.3184 344.683 95.4978 342.339 97.842C339.995 100.186 336.815 101.503 333.5 101.503ZM74.5 78.5032C71.7152 78.5032 69.0445 79.6094 67.0754 81.5786C65.1062 83.5477 64 86.2184 64 89.0032C64 91.7879 65.1062 94.4587 67.0754 96.4278C69.0445 98.3969 71.7152 99.5032 74.5 99.5032H333.5C336.285 99.5032 338.955 98.3969 340.925 96.4278C342.894 94.4587 344 91.7879 344 89.0032C344 86.2184 342.894 83.5477 340.925 81.5786C338.955 79.6094 336.285 78.5032 333.5 78.5032H74.5Z" fill="#3F3D56"/>
<path d="M169.5 195.003H74.8516C71.7644 195.043 68.7768 193.912 66.4902 191.837C64.2035 189.763 62.7876 186.899 62.5274 183.823C62.4161 182.182 62.6431 180.535 63.1943 178.986C63.7455 177.436 64.6092 176.017 65.7318 174.815C66.8543 173.613 68.2119 172.654 69.7202 171.999C71.2285 171.343 72.8554 171.004 74.5001 171.003H169.5C172.683 171.003 175.735 172.267 177.985 174.518C180.236 176.768 181.5 179.821 181.5 183.003C181.5 186.186 180.236 189.238 177.985 191.488C175.735 193.739 172.683 195.003 169.5 195.003Z" fill="#8A0C0C"/>
<path d="M345.236 214.503H63C62.7348 214.503 62.4804 214.398 62.2929 214.21C62.1053 214.023 62 213.768 62 213.503C62 213.238 62.1053 212.984 62.2929 212.796C62.4804 212.609 62.7348 212.503 63 212.503H345.236C345.502 212.503 345.756 212.609 345.943 212.796C346.131 212.984 346.236 213.238 346.236 213.503C346.236 213.768 346.131 214.023 345.943 214.21C345.756 214.398 345.502 214.503 345.236 214.503Z" fill="#E6E6E6"/>
<path d="M333.5 195.503H74.5C71.1848 195.503 68.0054 194.186 65.6612 191.842C63.317 189.498 62 186.318 62 183.003C62 179.688 63.317 176.509 65.6612 174.164C68.0054 171.82 71.1848 170.503 74.5 170.503H333.5C336.815 170.503 339.995 171.82 342.339 174.164C344.683 176.509 346 179.688 346 183.003C346 186.318 344.683 189.498 342.339 191.842C339.995 194.186 336.815 195.503 333.5 195.503ZM74.5 172.503C71.7152 172.503 69.0445 173.609 67.0754 175.579C65.1062 177.548 64 180.218 64 183.003C64 185.788 65.1062 188.459 67.0754 190.428C69.0445 192.397 71.7152 193.503 74.5 193.503H333.5C336.285 193.503 338.955 192.397 340.925 190.428C342.894 188.459 344 185.788 344 183.003C344 180.218 342.894 177.548 340.925 175.579C338.955 173.609 336.285 172.503 333.5 172.503H74.5Z" fill="#3F3D56"/>
<path d="M296.5 289.003H74.8516C71.7644 289.043 68.7768 287.912 66.4902 285.837C64.2035 283.763 62.7876 280.899 62.5274 277.823C62.4161 276.182 62.6431 274.535 63.1943 272.986C63.7455 271.436 64.6092 270.017 65.7318 268.815C66.8543 267.613 68.2119 266.654 69.7202 265.999C71.2285 265.343 72.8554 265.004 74.5001 265.003H296.5C299.683 265.003 302.735 266.267 304.985 268.518C307.236 270.768 308.5 273.821 308.5 277.003C308.5 280.186 307.236 283.238 304.985 285.488C302.735 287.739 299.683 289.003 296.5 289.003Z" fill="#8A0C0C"/>
<path d="M345.236 308.503H63C62.7348 308.503 62.4804 308.398 62.2929 308.21C62.1053 308.023 62 307.768 62 307.503C62 307.238 62.1053 306.984 62.2929 306.796C62.4804 306.609 62.7348 306.503 63 306.503H345.236C345.502 306.503 345.756 306.609 345.943 306.796C346.131 306.984 346.236 307.238 346.236 307.503C346.236 307.768 346.131 308.023 345.943 308.21C345.756 308.398 345.502 308.503 345.236 308.503Z" fill="#E6E6E6"/>
<path d="M333.5 289.503H74.5C71.1848 289.503 68.0054 288.186 65.6612 285.842C63.317 283.498 62 280.318 62 277.003C62 273.688 63.317 270.509 65.6612 268.164C68.0054 265.82 71.1848 264.503 74.5 264.503H333.5C336.815 264.503 339.995 265.82 342.339 268.164C344.683 270.509 346 273.688 346 277.003C346 280.318 344.683 283.498 342.339 285.842C339.995 288.186 336.815 289.503 333.5 289.503ZM74.5 266.503C71.7152 266.503 69.0445 267.609 67.0754 269.579C65.1062 271.548 64 274.218 64 277.003C64 279.788 65.1062 282.459 67.0754 284.428C69.0445 286.397 71.7152 287.503 74.5 287.503H333.5C336.285 287.503 338.955 286.397 340.925 284.428C342.894 282.459 344 279.788 344 277.003C344 274.218 342.894 271.548 340.925 269.579C338.955 267.609 336.285 266.503 333.5 266.503H74.5Z" fill="#3F3D56"/>
<path d="M230.214 88.8059H228.214V11.7629H372.871V13.7629H230.214V88.8059Z" fill="#CCCCCC"/>
<path d="M379.054 23.8918C385.652 23.8918 391 18.5434 391 11.9459C391 5.34836 385.652 0 379.054 0C372.457 0 367.108 5.34836 367.108 11.9459C367.108 18.5434 372.457 23.8918 379.054 23.8918Z" fill="#CCCCCC"/>
<path d="M160.786 182.806H162.786V138.763H18.129V140.763H160.786V182.806Z" fill="#CCCCCC"/>
<path d="M11.9459 150.892C18.5434 150.892 23.8918 145.543 23.8918 138.946C23.8918 132.348 18.5434 127 11.9459 127C5.34836 127 0 132.348 0 138.946C0 145.543 5.34836 150.892 11.9459 150.892Z" fill="#CCCCCC"/>
<path d="M296.214 280.201H294.214V335.244H416.871V333.244H296.214V280.201Z" fill="#CCCCCC"/>
<path d="M423.054 347.006C429.652 347.006 435 341.658 435 335.061C435 328.463 429.652 323.115 423.054 323.115C416.457 323.115 411.108 328.463 411.108 335.061C411.108 341.658 416.457 347.006 423.054 347.006Z" fill="#CCCCCC"/>
</svg>
