<svg width="289" height="264" viewBox="0 0 289 264" fill="none" xmlns="http://www.w3.org/2000/svg">
<path d="M270.87 0H18.14C13.3319 0.00400231 8.72177 1.9151 5.32101 5.31398C1.92026 8.71286 0.00665358 13.3219 0 18.13V245.86C0.00625236 250.669 1.91942 255.279 5.31998 258.68C8.72053 262.081 13.3309 263.994 18.14 264H270.87C275.678 263.993 280.287 262.08 283.686 258.679C287.085 255.278 288.996 250.668 289 245.86V18.13C288.996 13.323 287.084 8.71409 283.685 5.315C280.286 1.91592 275.677 0.00439004 270.87 0Z" fill="white"/>
<path d="M155.394 52.2677H128.394C127.068 52.2677 125.796 51.7409 124.859 50.8033C123.921 49.8656 123.394 48.5938 123.394 47.2677C123.394 45.9416 123.921 44.6699 124.859 43.7322C125.796 42.7945 127.068 42.2677 128.394 42.2677H155.394C156.72 42.2677 157.992 42.7945 158.93 43.7322C159.867 44.6699 160.394 45.9416 160.394 47.2677C160.394 48.5938 159.867 49.8656 158.93 50.8033C157.992 51.7409 156.72 52.2677 155.394 52.2677Z" fill="#8A0C0C"/>
<path d="M225.394 157H58.3942C57.0681 157 55.7963 156.473 54.8586 155.536C53.9209 154.598 53.3942 153.326 53.3942 152C53.3942 150.674 53.9209 149.402 54.8586 148.464C55.7963 147.527 57.0681 147 58.3942 147H225.394C226.72 147 227.992 147.527 228.93 148.464C229.867 149.402 230.394 150.674 230.394 152C230.394 153.326 229.867 154.598 228.93 155.536C227.992 156.473 226.72 157 225.394 157Z" fill="#E6E6E6"/>
<path d="M225.394 190H58.3942C57.0681 190 55.7963 189.473 54.8586 188.536C53.9209 187.598 53.3942 186.326 53.3942 185C53.3942 183.674 53.9209 182.402 54.8586 181.464C55.7963 180.527 57.0681 180 58.3942 180H225.394C226.72 180 227.992 180.527 228.93 181.464C229.867 182.402 230.394 183.674 230.394 185C230.394 186.326 229.867 187.598 228.93 188.536C227.992 189.473 226.72 190 225.394 190Z" fill="#E6E6E6"/>
<path d="M225.394 223H58.3942C57.0681 223 55.7963 222.473 54.8586 221.536C53.9209 220.598 53.3942 219.326 53.3942 218C53.3942 216.674 53.9209 215.402 54.8586 214.464C55.7963 213.527 57.0681 213 58.3942 213H225.394C226.72 213 227.992 213.527 228.93 214.464C229.867 215.402 230.394 216.674 230.394 218C230.394 219.326 229.867 220.598 228.93 221.536C227.992 222.473 226.72 223 225.394 223Z" fill="#E6E6E6"/>
<path d="M191.26 67.2699H92.53C87.7219 67.2739 83.1118 69.185 79.7111 72.5839C76.3103 75.9828 74.3967 80.5919 74.39 85.3999V115.13C74.3963 119.939 76.3094 124.549 79.71 127.95C83.1105 131.35 87.7209 133.264 92.53 133.27H191.26C196.068 133.263 200.677 131.35 204.076 127.949C207.475 124.548 209.386 119.938 209.39 115.13V85.3999C209.386 80.5929 207.474 75.984 204.075 72.5849C200.676 69.1858 196.067 67.2743 191.26 67.2699ZM207.39 115.13C207.39 119.411 205.69 123.516 202.663 126.543C199.636 129.569 195.531 131.27 191.25 131.27H120.377C108.711 131.27 97.5228 126.636 89.2736 118.386C81.0244 110.137 76.39 98.9488 76.39 87.2827V85.3999C76.3968 81.1223 78.0998 77.0221 81.1254 73.9983C84.1511 70.9745 88.2524 69.2741 92.53 69.2699H191.26C195.537 69.2745 199.637 70.9753 202.661 73.9993C205.685 77.0233 207.385 81.1234 207.39 85.3999V115.13Z" fill="#E6E6E6"/>
<path d="M143 111C152.389 111 160 103.389 160 94C160 84.6112 152.389 77 143 77C133.611 77 126 84.6112 126 94C126 103.389 133.611 111 143 111Z" fill="#E6E6E6"/>
<path d="M182.11 133.27L106 133L130 127L132.99 117.13L156 117L162.89 126.76L180.29 131.27L181.87 131.68L182.11 133.27Z" fill="#E6E6E6"/>
<path d="M133.338 104.854C136.986 102.003 132 89.4587 138.024 92.1362C138.024 92.1362 145.387 87.4507 146.866 90.5297C148.579 94.095 154.671 92.4776 158.413 91.2192C158.119 90.5356 157.91 89.8184 157.79 89.0839C158.481 89.6281 159.213 90.1182 159.979 90.5498C160.493 90.2752 160.948 89.9022 161.318 89.452C161.683 89.034 161.911 88.5143 161.972 87.9627C162.033 87.4111 161.924 86.854 161.659 86.3663C161.037 85.4091 159.752 85.1146 158.995 84.2645C158.908 84.1449 158.851 84.0059 158.829 83.8595C158.807 83.713 158.821 83.5634 158.87 83.4236C158.96 83.0815 158.973 82.7238 158.909 82.376C158.845 82.0281 158.706 81.6986 158.5 81.4109C158.294 81.1232 158.027 80.8845 157.719 80.7117C157.41 80.5389 157.067 80.4363 156.714 80.4112C156.572 80.4155 156.432 80.3849 156.304 80.3219C155.669 79.9332 155.083 79.4704 154.557 78.943C155.434 78.9832 154.362 73.6157 145.668 74.6323C143.479 74.552 142.336 76.9659 140.181 77.3475C134.956 74.362 130.293 78.6686 128.024 82.7851C125.755 86.9017 123.298 100.169 133.338 104.854Z" fill="#E6E6E6"/>
<path d="M270.87 0H18.14C13.3319 0.00400231 8.72177 1.9151 5.32101 5.31398C1.92026 8.71286 0.00665358 13.3219 0 18.13V245.86C0.00625236 250.669 1.91942 255.279 5.31998 258.68C8.72053 262.081 13.3309 263.994 18.14 264H270.87C275.678 263.993 280.287 262.08 283.686 258.679C287.085 255.278 288.996 250.668 289 245.86V18.13C288.996 13.323 287.084 8.71409 283.685 5.315C280.286 1.91592 275.677 0.00439004 270.87 0ZM287 245.86C287 250.141 285.3 254.246 282.273 257.273C279.246 260.3 275.141 262 270.86 262H132.201C115.103 262 98.1718 258.632 82.3751 252.089C66.5784 245.546 52.2252 235.955 40.1349 223.865C28.0447 211.775 18.4541 197.422 11.9109 181.625C5.36772 165.828 1.99999 148.897 2 131.799V18.13C2.00681 13.8524 3.70976 9.75212 6.73541 6.72835C9.76106 3.70457 13.8624 2.00415 18.14 2H270.87C275.147 2.00455 279.247 3.70542 282.271 6.7294C285.295 9.75338 286.995 13.8535 287 18.13V245.86Z" fill="#E6E6E6"/>
</svg>
